<?xml version="1.0" encoding="UTF-8" standalone="no"?>
<!DOCTYPE svg PUBLIC "-//W3C//DTD SVG 1.1//EN" "http://www.w3.org/Graphics/SVG/1.1/DTD/svg11.dtd">
<svg version="1.1" xmlns="http://www.w3.org/2000/svg" xmlns:xlink="http://www.w3.org/1999/xlink" preserveAspectRatio="xMidYMid meet" viewBox="0 0 500 100" width="500" height="100"><defs><path d="M92.66 90.57C92.66 90.57 92.66 90.57 92.66 90.57C92.66 94.99 92.66 97.44 92.66 97.93C92.66 97.93 92.66 97.93 92.66 97.93C59.14 97.93 40.52 97.93 36.79 97.93C36.79 97.93 36.79 97.93 36.79 97.93C36.79 93.52 36.79 91.06 36.79 90.57C36.79 90.57 36.79 90.57 36.79 90.57C70.32 90.57 88.94 90.57 92.66 90.57Z" id="guif8OOiI"></path><linearGradient id="gradientfbEsxq8l8" gradientUnits="userSpaceOnUse" x1="36.78" y1="94.25" x2="92.66" y2="94.25"><stop style="stop-color: #ffffff;stop-opacity: 0" offset="0%"></stop><stop style="stop-color: #f9f9f9;stop-opacity: 0.0111" offset="1.11%"></stop><stop style="stop-color: #c5c5c5;stop-opacity: 0.1166" offset="11.66%"></stop><stop style="stop-color: #979797;stop-opacity: 0.2267" offset="22.67%"></stop><stop style="stop-color: #717171;stop-opacity: 0.3394" offset="33.94%"></stop><stop style="stop-color: #515151;stop-opacity: 0.4553" offset="45.53%"></stop><stop style="stop-color: #393939;stop-opacity: 0.5753" offset="57.53%"></stop><stop style="stop-color: #282828;stop-opacity: 0.7012" offset="70.12%"></stop><stop style="stop-color: #1d1d1d;stop-opacity: 0.8368" offset="83.67999999999999%"></stop><stop style="stop-color: #1a1a1a;stop-opacity: 1" offset="100%"></stop></linearGradient><path d="M25.04 95.44L38.11 13.2L45.22 14.39L32.12 96.61L25.04 95.44Z" id="d3IHLFeKXO"></path><linearGradient id="gradientfHEjQ67HH" gradientUnits="userSpaceOnUse" x1="15.05" y1="89.68" x2="55.2" y2="20.14"><stop style="stop-color: #ffffff;stop-opacity: 0" offset="0%"></stop><stop style="stop-color: #d5d5d5;stop-opacity: 0.0635" offset="6.35%"></stop><stop style="stop-color: #aaaaaa;stop-opacity: 0.1411" offset="14.11%"></stop><stop style="stop-color: #838383;stop-opacity: 0.2247" offset="22.470000000000002%"></stop><stop style="stop-color: #626262;stop-opacity: 0.3132" offset="31.319999999999997%"></stop><stop style="stop-color: #484848;stop-opacity: 0.4081" offset="40.81%"></stop><stop style="stop-color: #333333;stop-opacity: 0.5117" offset="51.17%"></stop><stop style="stop-color: #252525;stop-opacity: 0.6284" offset="62.839999999999996%"></stop><stop style="stop-color: #1d1d1d;stop-opacity: 0.7693" offset="76.92999999999999%"></stop><stop style="stop-color: #1a1a1a;stop-opacity: 1" offset="100%"></stop></linearGradient><path d="M104.46 29.58L97.68 43.28L57.31 43.28L57.31 50.64L102.09 50.64L113.04 28.56L97.83 10.1L68.17 10.1L8.12 10.1L8.12 17.46L68.17 17.46L94.48 17.46L104.46 29.58Z" id="aLo4M4c0B"></path><path d="M53.3 64.78L94.48 64.78L104.46 76.88L97.68 90.57L92.66 90.57L92.66 97.93L102.09 97.93L113.04 75.87L97.83 57.42L53.3 57.42L53.3 64.78Z" id="dT8IWpz06"></path><path d="M94.88 74C70.63 74 57.15 74 54.46 74C53.35 72.42 51.53 71.39 49.49 71.39C46.09 71.39 43.34 74.21 43.34 77.67C43.34 81.14 46.09 83.94 49.49 83.94C51.53 83.94 53.35 82.91 54.46 81.34C57.15 81.34 70.63 81.34 94.88 81.34L94.88 74Z" id="awfKPtTRi"></path><path d="M67.94 34.04C69.73 34.04 78.72 34.04 94.88 34.04L94.88 26.68C78.72 26.68 69.73 26.68 67.94 26.68C66.83 25.1 65.02 24.08 62.97 24.08C59.58 24.08 56.82 26.89 56.82 30.35C56.82 33.81 59.58 36.64 62.97 36.64C65.02 36.64 66.83 35.62 67.94 34.04Z" id="aaDUQAbDw"></path><path d="M43.02 8.8L36.09 2.04L31.12 7.37L42.81 18.77L55.44 7.48L50.7 1.93L43.02 8.8Z" id="c5L4hC53oD"></path><path d="M139.3 78.03L148.28 35.77L132.47 35.77L135.07 23.27L181.47 23.27L178.87 35.77L163.09 35.77L154.02 78.03L139.3 78.03Z" id="bzENCsTsk"></path><path d="M189.41 67.41C190.41 68.66 191.97 69.28 194.13 69.28C195.66 69.28 196.92 68.96 197.88 68.32C198.86 67.68 199.57 66.59 200.03 65.06C201.34 65.06 211.77 65.06 213.07 65.06C212.09 69.56 209.89 73.04 206.43 75.53C202.98 78.01 198.58 79.25 193.21 79.25C187.32 79.25 182.78 77.71 179.55 74.64C176.33 71.57 174.73 67.04 174.73 61.07C174.73 57.63 175.27 54.43 176.35 51.45C177.42 48.46 178.96 45.86 180.92 43.62C182.88 41.4 185.27 39.65 188.09 38.41C190.9 37.15 194.04 36.54 197.52 36.54C200.44 36.54 202.96 36.98 205.11 37.88C207.27 38.78 209.04 39.99 210.45 41.53C211.85 43.06 212.9 44.88 213.58 46.97C214.26 49.06 214.63 51.3 214.63 53.65C214.63 55.22 214.48 56.87 214.16 58.55C214.13 58.73 213.97 59.59 213.69 61.15L187.92 61.15C188.24 64.48 188.74 66.57 189.41 67.41ZM189.22 53.26C190.49 53.26 200.68 53.26 201.95 53.26C202.1 52.6 202.19 51.96 202.19 51.34C202.19 49.76 201.72 48.53 200.76 47.65C199.82 46.78 198.52 46.35 196.88 46.35C195.15 46.35 193.61 46.88 192.29 47.93C190.97 48.97 189.94 50.74 189.22 53.26Z" id="b6J0tkf24"></path><path d="M255.69 42.89C255.76 42.55 256.12 40.81 256.76 37.69L270.18 37.69L258.45 92.9L244.56 92.9C247 81.48 248.36 75.14 248.63 73.87C247.35 75.41 245.77 76.69 243.92 77.71C242.06 78.73 239.86 79.25 237.37 79.25C233.27 79.25 230.09 77.79 227.81 74.87C225.53 71.95 224.4 67.81 224.4 62.46C224.4 58.94 224.89 55.59 225.85 52.45C226.83 49.31 228.19 46.54 229.94 44.17C231.71 41.81 233.81 39.91 236.24 38.5C238.67 37.09 241.34 36.39 244.26 36.39C246.88 36.39 249.17 36.94 251.13 38.07C253.09 39.2 254.63 40.8 255.69 42.89ZM251.41 49.34C250.53 48.1 249.19 47.5 247.33 47.5C245.79 47.5 244.47 47.93 243.38 48.8C242.3 49.68 241.4 50.77 240.7 52.07C240.01 53.37 239.5 54.82 239.16 56.4C238.82 57.98 238.67 59.49 238.67 60.92C238.67 65.68 240.4 68.05 243.87 68.05C245.97 68.05 247.71 67.28 249.08 65.74C250.47 64.21 251.38 62.22 251.83 59.77C251.89 59.45 252.39 56.87 252.45 56.55C252.62 55.63 252.71 54.78 252.71 54.01C252.71 52.11 252.28 50.55 251.41 49.34Z" id="b6lZhvjuX"></path><path d="M315.73 49.78C317.88 50.91 319.52 52.34 320.67 54.11C321.83 55.89 322.4 58.04 322.4 60.6C322.4 63.2 321.91 65.57 320.91 67.7C319.91 69.82 318.41 71.65 316.39 73.19C314.36 74.72 311.84 75.92 308.79 76.75C305.74 77.6 302.2 78.01 298.17 78.01C296.6 78.01 288.78 78.01 274.7 78.01L286.29 23.27C298.66 23.27 305.54 23.27 306.91 23.27C310.29 23.27 313.14 23.61 315.51 24.31C317.86 24.99 319.76 25.93 321.19 27.11C322.62 28.28 323.66 29.67 324.32 31.25C324.98 32.82 325.33 34.51 325.33 36.3C325.33 39.74 324.45 42.55 322.74 44.77C321.04 46.99 318.69 48.67 315.73 49.78ZM306 65.29C307.47 64.16 308.22 62.43 308.22 60.09C308.22 58.45 307.73 57.21 306.72 56.33C305.72 55.46 304.06 55.03 301.71 55.03C301.15 55.03 298.34 55.03 293.28 55.03L290.68 67L299.47 67C302.83 66.62 305 66.05 306 65.29ZM306.83 44C307.7 43.83 308.47 43.53 309.13 43.13C309.79 42.72 310.33 42.15 310.71 41.4C311.1 40.65 311.29 39.76 311.29 38.67C311.29 37.24 310.8 36.15 309.84 35.41C308.88 34.66 307.34 34.3 305.23 34.3C304.73 34.3 302.23 34.3 297.72 34.3L295.5 44.26L304.08 44.26C305.34 44.22 306.26 44.13 306.83 44Z" id="g5HnU7iumE"></path><path d="M358.22 48.8C355 48.8 352.53 49.66 350.78 51.36C349.05 53.07 347.85 55.42 347.26 58.38C346.98 59.69 345.6 66.23 343.12 78.01L329.23 78.01L337.74 37.75L351.25 37.75C350.61 40.75 350.25 42.41 350.18 42.74C353.44 38.9 357.37 36.98 361.91 36.98C362.79 36.98 363.53 37.03 364.13 37.13C364.75 37.24 365.37 37.37 365.97 37.52C365.62 38.7 362.85 48.15 362.51 49.34C361.89 49.19 361.25 49.06 360.59 48.95C359.93 48.85 359.14 48.8 358.22 48.8Z" id="g1CvO4RVe8"></path><path d="M367.01 78.03L375.52 37.77L389.41 37.77L380.9 78.03L367.01 78.03ZM376.23 33.31L378.36 23.27L392.4 23.27L390.26 33.31L376.23 33.31Z" id="baUeJAyAc"></path><path d="M418.17 47.59C416.85 47.59 415.67 47.97 414.65 48.74C413.62 49.51 412.77 50.51 412.09 51.77C411.41 53.03 410.87 54.46 410.51 56.06C410.15 57.68 409.98 59.32 409.98 61.01C409.98 63.42 410.38 65.21 411.17 66.4C411.96 67.6 413.28 68.19 415.12 68.19C416.8 68.19 418.13 67.73 419.06 66.77C420 65.83 420.71 64.42 421.18 62.58C422.51 62.58 433.18 62.58 434.51 62.58C433.63 67.7 431.39 71.76 427.79 74.79C424.18 77.82 419.58 79.31 413.94 79.31C408.31 79.31 403.92 77.77 400.72 74.68C397.52 71.59 395.92 67.09 395.92 61.15C395.92 57.63 396.47 54.35 397.6 51.34C398.73 48.33 400.31 45.71 402.36 43.51C404.41 41.31 406.84 39.61 409.68 38.37C412.51 37.13 415.65 36.54 419.06 36.54C424.12 36.54 428.11 37.88 431.03 40.57C433.95 43.26 435.51 46.86 435.7 51.43C434.38 51.6 423.76 52.94 422.43 53.11C422.35 51.36 421.97 50 421.3 49.04C420.64 48.06 419.6 47.59 418.17 47.59Z" id="b4G7aieejP"></path><path d="M465.93 23.27L460.34 49.95L475.21 37.75L491.23 37.75L473.29 52.41L483.87 78.03L469.6 78.03L462.86 60.24L457.19 64.67L454.35 78.01L441.02 78.01L452.6 23.27L465.93 23.27Z" id="e1T7vApIaS"></path></defs><g><g><g><use xlink:href="#guif8OOiI" opacity="1" fill="url(#gradientfbEsxq8l8)"></use><g><use xlink:href="#guif8OOiI" opacity="1" fill-opacity="0" stroke="#000000" stroke-width="1" stroke-opacity="0"></use></g></g><g><use xlink:href="#d3IHLFeKXO" opacity="1" fill="url(#gradientfHEjQ67HH)"></use><g><use xlink:href="#d3IHLFeKXO" opacity="1" fill-opacity="0" stroke="#000000" stroke-width="1" stroke-opacity="0"></use></g></g><g><use xlink:href="#aLo4M4c0B" opacity="1" fill="#1a1a1a" fill-opacity="1"></use><g><use xlink:href="#aLo4M4c0B" opacity="1" fill-opacity="0" stroke="#000000" stroke-width="1" stroke-opacity="0"></use></g></g><g><use xlink:href="#dT8IWpz06" opacity="1" fill="#1a1a1a" fill-opacity="1"></use><g><use xlink:href="#dT8IWpz06" opacity="1" fill-opacity="0" stroke="#000000" stroke-width="1" stroke-opacity="0"></use></g></g><g><use xlink:href="#awfKPtTRi" opacity="1" fill="#1a1a1a" fill-opacity="1"></use><g><use xlink:href="#awfKPtTRi" opacity="1" fill-opacity="0" stroke="#000000" stroke-width="1" stroke-opacity="0"></use></g></g><g><use xlink:href="#aaDUQAbDw" opacity="1" fill="#1a1a1a" fill-opacity="1"></use><g><use xlink:href="#aaDUQAbDw" opacity="1" fill-opacity="0" stroke="#000000" stroke-width="1" stroke-opacity="0"></use></g></g><g><use xlink:href="#c5L4hC53oD" opacity="1" fill="#1a1a1a" fill-opacity="1"></use><g><use xlink:href="#c5L4hC53oD" opacity="1" fill-opacity="0" stroke="#000000" stroke-width="1" stroke-opacity="0"></use></g></g><g><use xlink:href="#bzENCsTsk" opacity="1" fill="#1a1a1a" fill-opacity="1"></use><g><use xlink:href="#bzENCsTsk" opacity="1" fill-opacity="0" stroke="#000000" stroke-width="1" stroke-opacity="0"></use></g></g><g><use xlink:href="#b6J0tkf24" opacity="1" fill="#1a1a1a" fill-opacity="1"></use><g><use xlink:href="#b6J0tkf24" opacity="1" fill-opacity="0" stroke="#000000" stroke-width="1" stroke-opacity="0"></use></g></g><g><use xlink:href="#b6lZhvjuX" opacity="1" fill="#1a1a1a" fill-opacity="1"></use><g><use xlink:href="#b6lZhvjuX" opacity="1" fill-opacity="0" stroke="#000000" stroke-width="1" stroke-opacity="0"></use></g></g><g><use xlink:href="#g5HnU7iumE" opacity="1" fill="#1a1a1a" fill-opacity="1"></use><g><use xlink:href="#g5HnU7iumE" opacity="1" fill-opacity="0" stroke="#000000" stroke-width="1" stroke-opacity="0"></use></g></g><g><use xlink:href="#g1CvO4RVe8" opacity="1" fill="#1a1a1a" fill-opacity="1"></use><g><use xlink:href="#g1CvO4RVe8" opacity="1" fill-opacity="0" stroke="#000000" stroke-width="1" stroke-opacity="0"></use></g></g><g><use xlink:href="#baUeJAyAc" opacity="1" fill="#1a1a1a" fill-opacity="1"></use><g><use xlink:href="#baUeJAyAc" opacity="1" fill-opacity="0" stroke="#000000" stroke-width="1" stroke-opacity="0"></use></g></g><g><use xlink:href="#b4G7aieejP" opacity="1" fill="#1a1a1a" fill-opacity="1"></use><g><use xlink:href="#b4G7aieejP" opacity="1" fill-opacity="0" stroke="#000000" stroke-width="1" stroke-opacity="0"></use></g></g><g><use xlink:href="#e1T7vApIaS" opacity="1" fill="#1a1a1a" fill-opacity="1"></use><g><use xlink:href="#e1T7vApIaS" opacity="1" fill-opacity="0" stroke="#000000" stroke-width="1" stroke-opacity="0"></use></g></g></g></g></svg>