<?xml version="1.0" encoding="utf-8"?>
<!-- Generator: Adobe Illustrator 23.0.3, SVG Export Plug-In . SVG Version: 6.00 Build 0)  -->
<svg version="1.1" id="Layer_1" xmlns="http://www.w3.org/2000/svg" xmlns:xlink="http://www.w3.org/1999/xlink" x="0px" y="0px"
	 viewBox="0 0 300 52" style="enable-background:new 0 0 300 52;" xml:space="preserve">
<style type="text/css">
	.st0{fill:url(#SVGID_1_);}
	.st1{fill:url(#SVGID_2_);}
	.st2{fill:#1A1A1A;}
</style>
<g>
	<g>
		<linearGradient id="SVGID_1_" gradientUnits="userSpaceOnUse" x1="49.5853" y1="46.2755" x2="75.7788" y2="46.2755">
			<stop  offset="0" style="stop-color:#FFFFFF;stop-opacity:0"/>
			<stop  offset="0.0111" style="stop-color:#F9F9F9;stop-opacity:0.0111"/>
			<stop  offset="0.1166" style="stop-color:#C5C5C5;stop-opacity:0.1166"/>
			<stop  offset="0.2267" style="stop-color:#979797;stop-opacity:0.2267"/>
			<stop  offset="0.3394" style="stop-color:#717171;stop-opacity:0.3394"/>
			<stop  offset="0.4553" style="stop-color:#515151;stop-opacity:0.4553"/>
			<stop  offset="0.5753" style="stop-color:#393939;stop-opacity:0.5753"/>
			<stop  offset="0.7012" style="stop-color:#282828;stop-opacity:0.7012"/>
			<stop  offset="0.8368" style="stop-color:#1D1D1D;stop-opacity:0.8368"/>
			<stop  offset="1" style="stop-color:#1A1A1A"/>
		</linearGradient>
		<rect x="49.59" y="44.55" class="st0" width="26.19" height="3.45"/>
	</g>
	<g>
		<linearGradient id="SVGID_2_" gradientUnits="userSpaceOnUse" x1="39.4004" y1="44.1297" x2="58.2192" y2="11.5345">
			<stop  offset="0" style="stop-color:#FFFFFF;stop-opacity:0"/>
			<stop  offset="0.0635" style="stop-color:#D5D5D5;stop-opacity:0.0635"/>
			<stop  offset="0.1411" style="stop-color:#AAAAAA;stop-opacity:0.1411"/>
			<stop  offset="0.2247" style="stop-color:#838383;stop-opacity:0.2247"/>
			<stop  offset="0.3132" style="stop-color:#626262;stop-opacity:0.3132"/>
			<stop  offset="0.4081" style="stop-color:#484848;stop-opacity:0.4081"/>
			<stop  offset="0.5117" style="stop-color:#333333;stop-opacity:0.5117"/>
			<stop  offset="0.6284" style="stop-color:#252525;stop-opacity:0.6284"/>
			<stop  offset="0.7693" style="stop-color:#1D1D1D;stop-opacity:0.7693"/>
			<stop  offset="1" style="stop-color:#1A1A1A"/>
		</linearGradient>
		<polygon class="st1" points="47.4,47.38 44.08,46.83 50.21,8.28 53.54,8.84 		"/>
	</g>
	<g>
		<polygon class="st2" points="76.63,10.28 81.31,15.96 78.13,22.38 59.21,22.38 59.21,25.83 80.2,25.83 85.33,15.48 78.2,6.83 
			64.3,6.83 36.15,6.83 36.15,10.28 64.3,10.28 		"/>
		<polygon class="st2" points="57.33,29.01 57.33,32.46 76.63,32.46 81.31,38.13 78.13,44.55 75.78,44.55 75.78,48 80.2,48 
			85.33,37.66 78.2,29.01 		"/>
		<path class="st2" d="M76.82,40.23v-3.45H57.87c-0.52-0.74-1.37-1.22-2.33-1.22c-1.59,0-2.88,1.32-2.88,2.94
			c0,1.63,1.29,2.94,2.88,2.94c0.96,0,1.81-0.48,2.33-1.22H76.82z"/>
		<path class="st2" d="M61.86,19.27c0.96,0,1.81-0.48,2.33-1.22h12.63v-3.45H64.19c-0.52-0.74-1.37-1.22-2.33-1.22
			c-1.59,0-2.88,1.32-2.88,2.94S60.27,19.27,61.86,19.27z"/>
	</g>
</g>
<polygon class="st2" points="56.11,3 52.51,6.22 49.26,3.05 46.93,5.55 52.41,10.89 58.33,5.6 "/>
<g>
	<path class="st2" d="M104.54,38.67h-6.9l4.21-19.81h-7.41L95.66,13h21.75l-1.22,5.86h-7.4L104.54,38.67z"/>
	<path class="st2" d="M120.43,30.76c0,1.37,0.23,2.34,0.7,2.93c0.47,0.59,1.2,0.88,2.21,0.88c0.72,0,1.31-0.15,1.76-0.45
		c0.46-0.3,0.79-0.81,1.01-1.53h6.11c-0.46,2.11-1.49,3.74-3.11,4.91c-1.62,1.16-3.68,1.74-6.2,1.74c-2.76,0-4.89-0.72-6.4-2.16
		c-1.51-1.44-2.26-3.56-2.26-6.36c0-1.61,0.25-3.11,0.76-4.51c0.5-1.4,1.22-2.62,2.14-3.67c0.92-1.04,2.04-1.86,3.36-2.44
		c1.32-0.59,2.79-0.88,4.42-0.88c1.37,0,2.55,0.21,3.56,0.63c1.01,0.42,1.84,0.99,2.5,1.71c0.66,0.72,1.15,1.57,1.47,2.55
		c0.32,0.98,0.49,2.03,0.49,3.13c0,0.74-0.07,1.51-0.22,2.3l-0.22,1.22H120.43z M122.48,24.56c-0.62,0.49-1.1,1.32-1.44,2.5h5.97
		c0.07-0.31,0.11-0.61,0.11-0.9c0-0.74-0.22-1.32-0.67-1.73c-0.44-0.41-1.05-0.61-1.82-0.61C123.82,23.82,123.1,24.07,122.48,24.56z
		"/>
	<path class="st2" d="M150.06,19.94c0.92,0.53,1.64,1.28,2.14,2.26l0.5-2.44h6.29l-5.5,25.88h-6.51l1.91-8.92
		c-0.6,0.72-1.34,1.32-2.21,1.8c-0.87,0.48-1.9,0.72-3.07,0.72c-1.92,0-3.41-0.68-4.48-2.05c-1.07-1.37-1.6-3.31-1.6-5.82
		c0-1.65,0.23-3.22,0.68-4.69c0.46-1.47,1.1-2.77,1.92-3.88c0.83-1.11,1.81-2,2.95-2.66c1.14-0.66,2.39-0.99,3.76-0.99
		C148.07,19.15,149.14,19.41,150.06,19.94z M150.8,27.41c0-0.89-0.2-1.62-0.61-2.19c-0.41-0.58-1.04-0.86-1.91-0.86
		c-0.72,0-1.34,0.2-1.85,0.61c-0.51,0.41-0.93,0.92-1.26,1.53c-0.32,0.61-0.56,1.29-0.72,2.03c-0.16,0.74-0.23,1.45-0.23,2.12
		c0,2.23,0.81,3.34,2.44,3.34c0.98,0,1.8-0.36,2.44-1.08c0.65-0.72,1.08-1.65,1.29-2.8l0.29-1.51
		C150.76,28.17,150.8,27.77,150.8,27.41z"/>
	<path class="st2" d="M183.63,23.08c-0.8,1.04-1.9,1.83-3.29,2.35c1.01,0.53,1.78,1.2,2.32,2.03c0.54,0.83,0.81,1.84,0.81,3.04
		c0,1.22-0.23,2.33-0.7,3.33c-0.47,0.99-1.17,1.85-2.12,2.57c-0.95,0.72-2.13,1.28-3.56,1.67c-1.43,0.4-3.09,0.59-4.98,0.59h-11
		L166.54,13h9.67c1.58,0,2.92,0.16,4.03,0.49c1.1,0.32,1.99,0.76,2.66,1.31c0.67,0.55,1.16,1.2,1.47,1.94
		c0.31,0.74,0.47,1.53,0.47,2.37C184.84,20.72,184.43,22.04,183.63,23.08z M172.72,33.49c1.34,0,2.36-0.26,3.06-0.79
		c0.69-0.53,1.04-1.34,1.04-2.44c0-0.77-0.23-1.35-0.7-1.76c-0.47-0.41-1.25-0.61-2.35-0.61h-3.95l-1.22,5.61H172.72z M174.88,22.85
		c0.46,0,0.89-0.04,1.29-0.13c0.41-0.08,0.77-0.22,1.08-0.41c0.31-0.19,0.56-0.46,0.74-0.81s0.27-0.77,0.27-1.28
		c0-0.67-0.23-1.18-0.68-1.53s-1.17-0.52-2.16-0.52h-3.52l-1.04,4.67H174.88z"/>
	<path class="st2" d="M201.37,25.04c-0.31-0.05-0.68-0.07-1.11-0.07c-1.51,0-2.67,0.4-3.49,1.2c-0.81,0.8-1.37,1.9-1.65,3.29
		l-1.94,9.2h-6.51l3.99-18.87h6.33l-0.5,2.34c1.53-1.8,3.37-2.7,5.5-2.7c0.41,0,0.76,0.02,1.04,0.07c0.29,0.05,0.58,0.11,0.86,0.18
		l-1.62,5.54C201.98,25.15,201.68,25.09,201.37,25.04z"/>
	<path class="st2" d="M210.89,38.67h-6.51l3.99-18.87h6.51L210.89,38.67z M215.28,17.71h-6.58L209.7,13h6.58L215.28,17.71z"/>
	<path class="st2" d="M229.83,25.08c-0.31-0.46-0.8-0.68-1.47-0.68c-0.62,0-1.17,0.18-1.65,0.54c-0.48,0.36-0.88,0.83-1.2,1.42
		s-0.57,1.26-0.74,2.01c-0.17,0.76-0.25,1.53-0.25,2.32c0,1.13,0.19,1.97,0.56,2.53c0.37,0.56,0.99,0.84,1.85,0.84
		c0.79,0,1.41-0.22,1.85-0.67c0.44-0.44,0.77-1.1,0.99-1.96h6.25c-0.41,2.4-1.46,4.3-3.15,5.72s-3.85,2.12-6.49,2.12
		c-2.64,0-4.7-0.72-6.2-2.17c-1.5-1.45-2.25-3.56-2.25-6.34c0-1.65,0.26-3.19,0.79-4.6c0.53-1.41,1.27-2.64,2.23-3.67
		c0.96-1.03,2.1-1.83,3.43-2.41c1.33-0.58,2.8-0.86,4.4-0.86c2.37,0,4.24,0.63,5.61,1.89c1.37,1.26,2.1,2.95,2.19,5.09l-6.22,0.79
		C230.32,26.17,230.14,25.53,229.83,25.08z"/>
	<path class="st2" d="M244.5,13h6.25l-2.62,12.51l6.97-5.72h7.51l-8.41,6.87l4.96,12.01h-6.69l-3.16-8.34l-2.66,2.08l-1.33,6.25
		h-6.25L244.5,13z"/>
</g>
</svg>
